<?xml version="1.0" encoding="utf-8"?>
<!-- Generator: Adobe Illustrator 27.9.0, SVG Export Plug-In . SVG Version: 6.00 Build 0)  -->
<svg version="1.1" id="Layer_1" xmlns="http://www.w3.org/2000/svg" xmlns:xlink="http://www.w3.org/1999/xlink" x="0px" y="0px"
	 viewBox="0 0 601.12 616.67" style="enable-background:new 0 0 601.12 616.67;" xml:space="preserve">
<style type="text/css">
	.st0{fill:url(#SVGID_1_);}
	.st1{fill:url(#SVGID_00000174593855677117150200000012714944363038042045_);}
	.st2{fill:url(#SVGID_00000018239189729452222250000002926257676777405577_);}
	.st3{fill:url(#SVGID_00000045610397051424304390000008002990677013690778_);}
	.st4{fill:url(#SVGID_00000105423464651127095860000013455155377429124022_);}
	.st5{fill:url(#SVGID_00000068671054361149343120000004946544684461457342_);}
	.st6{fill:url(#SVGID_00000113321837941463687510000017332138743130520473_);}
	.st7{fill:url(#SVGID_00000016056694705261370710000001530745790201218713_);}
	.st8{fill:url(#SVGID_00000131326903182798353550000008614607580920586169_);}
	.st9{fill:url(#SVGID_00000104673490930577971400000014174657366140824506_);}
	.st10{fill:url(#SVGID_00000049932460553974191110000008056101634186261169_);}
	.st11{fill:url(#SVGID_00000135662151122071101500000018032206964433906356_);}
	.st12{fill:url(#SVGID_00000122685733216394573770000000961285116272462266_);}
</style>
<g>
	<linearGradient id="SVGID_1_" gradientUnits="userSpaceOnUse" x1="40.9345" y1="65.7995" x2="364.9311" y2="389.7961">
		<stop  offset="0" style="stop-color:#E8C26D"/>
		<stop  offset="0.0886" style="stop-color:#EBCB82;stop-opacity:0.9114"/>
		<stop  offset="0.2977" style="stop-color:#F2DDAF;stop-opacity:0.7023"/>
		<stop  offset="0.4992" style="stop-color:#F8ECD2;stop-opacity:0.5008"/>
		<stop  offset="0.6884" style="stop-color:#FCF6EB;stop-opacity:0.3116"/>
		<stop  offset="0.8605" style="stop-color:#FEFDFA;stop-opacity:0.1395"/>
		<stop  offset="1" style="stop-color:#FFFFFF;stop-opacity:0"/>
	</linearGradient>
	<circle class="st0" cx="302.86" cy="327.73" r="230.76"/>
	<g>
		
			<linearGradient id="SVGID_00000181777904894599619030000000382495839166835635_" gradientUnits="userSpaceOnUse" x1="153.1137" y1="88.9521" x2="503.4464" y2="439.2848" gradientTransform="matrix(-0.7071 0.7071 -0.7071 -0.7071 721.7535 282.3605)">
			<stop  offset="0" style="stop-color:#E8C26D"/>
			<stop  offset="0.0886" style="stop-color:#EBCB82;stop-opacity:0.9114"/>
			<stop  offset="0.2977" style="stop-color:#F2DDAF;stop-opacity:0.7023"/>
			<stop  offset="0.4992" style="stop-color:#F8ECD2;stop-opacity:0.5008"/>
			<stop  offset="0.6884" style="stop-color:#FCF6EB;stop-opacity:0.3116"/>
			<stop  offset="0.8605" style="stop-color:#FEFDFA;stop-opacity:0.1395"/>
			<stop  offset="1" style="stop-color:#FFFFFF;stop-opacity:0"/>
		</linearGradient>
		<path style="fill:url(#SVGID_00000181777904894599619030000000382495839166835635_);" d="M302.86,575.45
			c-66.17,0-128.38-25.77-175.17-72.56l0,0c-46.79-46.79-72.56-109-72.56-175.17c0-66.17,25.77-128.38,72.56-175.17
			s109-72.56,175.17-72.56s128.38,25.77,175.17,72.56c46.79,46.79,72.56,109,72.56,175.17c0,66.17-25.77,128.38-72.56,175.17
			C431.24,549.68,369.03,575.45,302.86,575.45z M128.58,502.01c46.55,46.55,108.45,72.19,174.28,72.19s127.73-25.64,174.28-72.19
			s72.19-108.45,72.19-174.28c0-65.83-25.64-127.73-72.19-174.28S368.7,81.26,302.86,81.26s-127.73,25.64-174.28,72.19
			C32.49,249.55,32.49,405.91,128.58,502.01z"/>
	</g>
	<g>
		
			<linearGradient id="SVGID_00000110434152333923233580000001904435026654463396_" gradientUnits="userSpaceOnUse" x1="472.6677" y1="372.8392" x2="162.2021" y2="186.8597">
			<stop  offset="0" style="stop-color:#51ADAD"/>
			<stop  offset="1" style="stop-color:#5CC481"/>
		</linearGradient>
		<path style="fill:url(#SVGID_00000110434152333923233580000001904435026654463396_);" d="M600.63,310.94
			c-54.88,2.64-85.23,54.92-130.41,78.46c-21.14,11.02-46.47,19.18-70.56,18.84c-19.75-0.28-50.27-16.56-45.22-41.6
			c0.61-3.01,4.13-14.46-0.89-8.62c-5.3,6.17-7.21,21.89-8.77,29.6c-4.17,20.65-3.52,42.49,15.33,56.18
			c21.43,15.56,55.34,6.5,78.01-1.81c25.23-9.24,45.97-24.61,66-42.11c25.02-21.85,50.11-43.7,84.83-45.37
			C596.46,354.15,599.53,310.99,600.63,310.94L600.63,310.94z"/>
	</g>
	<g>
		
			<linearGradient id="SVGID_00000006674731369154348100000008878424146511639948_" gradientUnits="userSpaceOnUse" x1="491.6477" y1="341.1548" x2="181.1821" y2="155.1754">
			<stop  offset="0" style="stop-color:#51ADAD"/>
			<stop  offset="1" style="stop-color:#5CC481"/>
		</linearGradient>
		<path style="fill:url(#SVGID_00000006674731369154348100000008878424146511639948_);" d="M401.33,368.54
			c10.67-37.06,52.03-38.66,82.86-35.94c35.33,3.12,70.26,9.2,104.76,17.4c3.61,0.86,14.6-42.88,11.68-43.58
			c-42.58-10.12-90.28-21.09-134.41-18.6c-39.04,2.2-56.26,34.22-65.99,68.01c-0.8,2.76-8.1,26.16-5.66,27.21
			C397.29,384.21,400.58,371.17,401.33,368.54L401.33,368.54z"/>
	</g>
	<g>
		
			<linearGradient id="SVGID_00000004546243143132584370000004562690938946269868_" gradientUnits="userSpaceOnUse" x1="417.9918" y1="464.1127" x2="107.5261" y2="278.1333">
			<stop  offset="0" style="stop-color:#51ADAD"/>
			<stop  offset="1" style="stop-color:#5CC481"/>
		</linearGradient>
		<path style="fill:url(#SVGID_00000004546243143132584370000004562690938946269868_);" d="M266.86,331.35
			c0.7,8.22,1.42,16.45,1.53,24.71c0.17,4.14,0.06,8.27-0.32,12.39c-0.85,9.16,0.44,4.19,3.87-14.91
			c-3.66,0.89-13.79,15.32-17.81,17.82c-5.9,3.65-12.38,6.24-19.19,7.61c-26.66,5.34-51.44-9.39-63.32-32.98
			c0.46,0.91-9.64,24.58-10.49,27.74c-1.89,7.03-8.39,22.12-4.79,29.26c20.72,41.11,77.1,45.36,102.39,5.92
			c23.92-37.3,28.03-89.23,24.37-132.11c-0.28-3.23-8.27,17.09-8.84,18.97C271.05,306.41,265.89,319.96,266.86,331.35L266.86,331.35
			z"/>
	</g>
	<g>
		
			<linearGradient id="SVGID_00000163034250393588673950000007839629759881708460_" gradientUnits="userSpaceOnUse" x1="449.3073" y1="411.8361" x2="138.8416" y2="225.8566">
			<stop  offset="0" style="stop-color:#51ADAD"/>
			<stop  offset="1" style="stop-color:#5CC481"/>
		</linearGradient>
		<path style="fill:url(#SVGID_00000163034250393588673950000007839629759881708460_);" d="M365.12,321.54
			c4.05-14.41-2.44-0.89-5.27,2.24c-4.5,4.97-9.98,9.4-16.05,12.31c-9.38,4.5-19.97,5.63-29.71,1.57
			c-23.79-9.91-28.17-38.44-30.99-60.87c-0.43-3.39-8.3,17.18-8.84,18.97c-3.11,10.32-8.8,24.51-7.4,35.59
			c3.44,27.32,14.25,73.04,52.02,65.11c33.46-7.03,44.03-45.2,51.95-73.39c0.72-2.57,8.05-28.39,4.79-29.26
			C372.43,292.95,365.36,320.68,365.12,321.54L365.12,321.54z"/>
	</g>
	<g>
		
			<linearGradient id="SVGID_00000059298867301746863060000007767957312475999679_" gradientUnits="userSpaceOnUse" x1="545.737" y1="250.8606" x2="235.2713" y2="64.8812">
			<stop  offset="0" style="stop-color:#51ADAD"/>
			<stop  offset="1" style="stop-color:#5CC481"/>
		</linearGradient>
		<path style="fill:url(#SVGID_00000059298867301746863060000007767957312475999679_);" d="M324.69,144.02
			c-4.25,12.86-9.68,25.26-16.48,37.18c-2.01,3.54-4.09,7-6.22,10.46c-1.89-2.6-3.74-5.23-5.51-7.83c-1.69-2.44-3.3-4.84-4.88-7.28
			c-2.05-3.11-3.93-6.26-5.74-9.36c-23.76-41.42-19.08-88.91-3.34-132.18c2.44-6.65,5.11-13.22,7.99-19.63
			c0.59-1.3,1.06-2.12,1.42-2.56c0,0,0-0.04,0.04-0.04c2.4-2.91,0.2,11.41-0.28,13.85c-0.35,1.69-0.67,3.38-1.06,5.07
			c-0.63,2.95-1.3,5.94-2.09,8.93c-1.02,4.05-2.16,8.06-3.5,12.04c0,0.67-0.08,1.38-0.12,2.12c0.12,2.09,0.24,4.13,0.35,6.22
			c0.51,6.22,1.61,12.43,3.11,18.49c3.03,11.92,8.1,23.01,14.4,33.56c3.78,6.29,7.91,12.35,12.23,18.25
			c1.93,2.6,3.89,5.19,5.82,7.75C322.13,140.76,323.39,142.37,324.69,144.02z"/>
		
			<linearGradient id="SVGID_00000062876942362979769120000002851305769774926980_" gradientUnits="userSpaceOnUse" x1="494.1856" y1="336.9182" x2="183.7199" y2="150.9388">
			<stop  offset="0" style="stop-color:#51ADAD"/>
			<stop  offset="1" style="stop-color:#5CC481"/>
		</linearGradient>
		<path style="fill:url(#SVGID_00000062876942362979769120000002851305769774926980_);" d="M374.57,303.27
			c-1.97,9.6-4.52,31.27-11.49,38.71c-6.65,7.12-2.05-6.85-1.18-11.25c10.27-50.59-25.49-92.49-54.88-132.22
			c2.71-4.41,5.43-8.89,8.03-13.42c6.06-10.66,11.17-21.75,15.38-33.6c5.19,6.69,10.27,13.45,14.99,20.46
			C372.69,212.51,384.33,255.04,374.57,303.27z"/>
	</g>
	<g>
		
			<linearGradient id="SVGID_00000150087264081717421090000000011225371650132118_" gradientUnits="userSpaceOnUse" x1="382.9028" y1="522.6886" x2="72.4372" y2="336.7092">
			<stop  offset="0" style="stop-color:#51ADAD"/>
			<stop  offset="1" style="stop-color:#5CC481"/>
		</linearGradient>
		<path style="fill:url(#SVGID_00000150087264081717421090000000011225371650132118_);" d="M218.83,265.06
			c-9.23,27.45-46.59,35.33-70.73,40.71c-28.26,6.3-54.74,14.96-79.51,30.28c-20.17,12.48-42.97,28.81-52.95,50.97
			C6.79,406.69-6.1,442.08,3.26,463.6c8.6,19.79,33.14,20.7,51.85,20.81c25.67,0.15,50.34-8.04,69.6-25.31
			c28.75-25.79,40.38-67.46,47.77-104.05c0.9-4.43,5.49-18.38-1.16-11.27c-6.95,7.43-9.53,29.12-11.47,38.72
			c-0.22,1.09,2.74-9.8,3.31-12.4c2.15-9.81,0.05-0.58-1.33,1.86c-4.06,7.19-7.9,14.11-13.16,20.53
			c-12.93,15.76-30.47,26.8-50.23,31.75c-21.68,5.43-87.45,9.16-81.45-29.01c-3.6,13.43-7.2,26.87-10.8,40.3
			c7.21-19.71,35.7-35.97,52.78-45.88c21.08-12.23,43.69-20.15,67.38-25.5c21.82-4.92,44.89-8.84,62.72-23.41
			c14.53-11.88,21.16-28.28,26.99-45.62c3.43-10.2,11.91-28.54,9.43-39.27C223.39,246.88,220.48,260.15,218.83,265.06L218.83,265.06
			z"/>
	</g>
	
		<linearGradient id="SVGID_00000165193932107421543770000005002974473610576802_" gradientUnits="userSpaceOnUse" x1="445.6213" y1="417.9892" x2="135.1557" y2="232.0097">
		<stop  offset="0" style="stop-color:#51ADAD"/>
		<stop  offset="1" style="stop-color:#5CC481"/>
	</linearGradient>
	<path style="fill:url(#SVGID_00000165193932107421543770000005002974473610576802_);" d="M131.35,288.16
		c-6.99-16.72-4.23-28.04-2.71-32.55c8.2-24.46,43.88-40.98,87.31-33.64c-1.76,7.95-6.96,26.29-23.11,42.68
		c-19.68,19.98-42.98,24.25-50.64,25.32c11.3-14.84,22.6-29.69,33.9-44.53C161.18,259.68,146.27,273.92,131.35,288.16z"/>
	
		<linearGradient id="SVGID_00000047781583830007774500000002644666704654711950_" gradientUnits="userSpaceOnUse" x1="421.0478" y1="459.0111" x2="110.5822" y2="273.0317">
		<stop  offset="0" style="stop-color:#51ADAD"/>
		<stop  offset="1" style="stop-color:#5CC481"/>
	</linearGradient>
	<path style="fill:url(#SVGID_00000047781583830007774500000002644666704654711950_);" d="M114.33,292.16
		c-20.88,8.73-35.01,5.28-40.64,3.39c-30.53-10.23-51.16-54.78-42-109c9.93,2.2,32.82,8.69,53.28,28.85
		c24.95,24.57,30.27,53.66,31.61,63.22c-18.53-14.11-37.06-28.22-55.6-42.32C78.77,254.92,96.55,273.54,114.33,292.16z"/>
	
		<linearGradient id="SVGID_00000106148551526385974370000005902374449653494413_" gradientUnits="userSpaceOnUse" x1="526.6206" y1="282.7726" x2="216.155" y2="96.7932">
		<stop  offset="0" style="stop-color:#51ADAD"/>
		<stop  offset="1" style="stop-color:#5CC481"/>
	</linearGradient>
	<path style="fill:url(#SVGID_00000106148551526385974370000005902374449653494413_);" d="M329.85,126.24
		c-1.49,6.02-3.19,11.96-5.15,17.78c-4.25,12.86-9.68,25.26-16.48,37.18c-2.01,3.54-4.09,7-6.22,10.46
		c-13.57,22.19-28.64,43.31-35.84,68.84c-5.94,20.97-3.46,0.75-0.75-8.73c7.08-25.06,18.53-46.5,31.08-67.94
		c5.66-9.72,11.57-19.39,17.39-29.47c2.87-4.96,5.19-10.07,6.96-15.3c12.98-37.37-0.43-80.1-30.21-107.36
		c-0.67-0.59-1.34-1.18-2.01-1.77c-2.56-2.2,0.31-10.03,3.3-17.11c0,0,0-0.04,0.04-0.04c2.68-6.33,5.47-12.08,4.64-12.79
		C333.27,31.87,340.98,81,329.85,126.24z"/>
	<g>
		
			<linearGradient id="SVGID_00000000917867041815222820000011443625649347394447_" gradientUnits="userSpaceOnUse" x1="383.3281" y1="551.2258" x2="72.8625" y2="365.2464" gradientTransform="matrix(0.9831 0.1829 -0.1829 0.9831 77.5373 -48.642)">
			<stop  offset="0" style="stop-color:#51ADAD"/>
			<stop  offset="1" style="stop-color:#5CC481"/>
		</linearGradient>
		<path style="fill:url(#SVGID_00000000917867041815222820000011443625649347394447_);" d="M263.17,471.3
			c10.88,4.79,44.91,18.82,44.42,33.83c6.7-15.02,13.39-30.04,20.09-45.06c-5.35,9.25-22.09,11.01-31.01,15.08
			c-6.21,2.83-10.95,16.41-13.64,21.83c-4.08,8.23-12.22,20.62-12.05,30.12c0.15,8.16,7.32,9.02,13.44,13
			c7.28,4.75,13.51,10.91,17.79,18.5c7.28,12.91,8.38,31.35,2.96,45.3c-1.64,4.22-8.77,17.07-0.92,11.29
			c8.09-5.96,14.86-26.95,18.36-35.97c6.98-17.96,14.08-37.24,10.82-56.83c-1.37-8.2-4.29-15.86-9.32-22.54
			c-4.87-6.46-27.07-17.27-27.18-23.43c-8.57,17.32-17.13,34.64-25.7,51.95c11.14-5.07,23.14-7.11,32.52-15.79
			c9.8-9.08,15.66-23.21,21.13-35.1c4.22-9.16,11.88-21.19,6.71-30.83c-7.18-13.37-29.85-22.84-42.97-28.62
			C284.12,416.08,259.61,469.74,263.17,471.3L263.17,471.3z"/>
	</g>
</g>
</svg>
